<!DOCTYPE svg PUBLIC "-//W3C//DTD SVG 1.1//EN" "http://www.w3.org/Graphics/SVG/1.1/DTD/svg11.dtd">
<!-- Uploaded to: SVG Repo, www.svgrepo.com, Transformed by: SVG Repo Mixer Tools -->
<svg height="64px" width="64px" version="1.1" id="Layer_1" xmlns="http://www.w3.org/2000/svg" xmlns:xlink="http://www.w3.org/1999/xlink" viewBox="0 0 512 512" xml:space="preserve" fill="#f7f7f7" stroke="#f7f7f7">
<g id="SVGRepo_bgCarrier" stroke-width="0"/>
<g id="SVGRepo_tracerCarrier" stroke-linecap="round" stroke-linejoin="round"/>
<g id="SVGRepo_iconCarrier"> <g> <path style="fill:#2D527C;" d="M60.76,139.883c-7.81,0-14.144-6.334-14.144-14.144V60.761c0-7.81,6.334-14.144,14.144-14.144h64.98 c7.81,0,14.144,6.334,14.144,14.144s-6.334,14.144-14.144,14.144H74.903v50.835C74.903,133.551,68.57,139.883,60.76,139.883z"/> <path style="fill:#2D527C;" d="M451.239,465.383H386.26c-7.81,0-14.144-6.334-14.144-14.144s6.334-14.144,14.144-14.144h50.835 V386.26c0-7.81,6.334-14.144,14.144-14.144c7.81,0,14.144,6.334,14.144,14.144v64.979 C465.383,459.05,459.05,465.383,451.239,465.383z"/> <path style="fill:#2D527C;" d="M497.856,512H14.144C6.334,512,0,505.667,0,497.856V14.144C0,6.334,6.334,0,14.144,0h483.713 C505.667,0,512,6.334,512,14.144v483.713C512,505.667,505.667,512,497.856,512z M28.287,483.713h455.425V28.287H28.287V483.713z"/> </g> <path style="fill:#CEE8FA;" d="M352.675,181.916c0.494-4.017,0.75-8.107,0.75-12.258c0-34.902-28.29-63.194-63.188-63.194H184.633 c-6.645,0-12.316,4.799-13.419,11.349l-38.912,231.28c-1.395,8.299,5.003,15.864,13.417,15.864h38.623 c6.642,0,12.42-4.795,13.523-11.343l12.132-72.128c0.096-0.563,0.211-1.238,0.28-1.653c1.799-6.266,7.544-10.694,14.197-10.694 h29.471c21.924,0,42.191-7.092,58.631-19.108"/> <path style="fill:#2D527C;" d="M366.494,184.898c0.089-0.413,0.167-0.832,0.219-1.26c0.567-4.625,0.854-9.328,0.854-13.982 c0-42.643-34.692-77.337-77.333-77.337H184.631c-13.598,0-25.108,9.732-27.368,23.145L118.353,346.75 c-1.354,8.069,0.9,16.279,6.184,22.524c5.283,6.244,13.004,9.826,21.183,9.826h33.965l-1.784,10.603 c-1.256,7.478,0.833,15.084,5.731,20.873c4.895,5.786,12.049,9.104,19.627,9.104h32.846c12.652,0,23.355-9.017,25.447-21.443 l10.1-60.041h23.644c49.798,0,91.928-37.225,97.999-86.59c0.492-4.007,0.741-8.096,0.741-12.151 C394.034,217.121,383.19,197.277,366.494,184.898z M196.684,275.926c-0.15,0.523-0.27,1.057-0.359,1.594l-12.332,73.292h-37.639 l38.73-230.205h105.152c27.044,0,49.046,22.005,49.046,49.05c0,1.061-0.027,2.124-0.066,3.188 c-4.229-0.827-8.594-1.274-13.062-1.274h-89.805c-12.602,0-23.266,9.019-25.36,21.449l-13.582,80.731 C197.14,274.462,196.897,275.186,196.684,275.926z M365.216,248.153c-4.329,35.206-34.389,61.754-69.923,61.754h-25.061 c-11.844,0-22.398,7.95-25.666,19.333c-0.147,0.516-0.266,1.041-0.356,1.57l-10.192,60.582h-27.716l18.189-108.111h29.456 c24.272,0,47.431-7.55,66.976-21.832c6.307-4.609,7.683-13.459,3.075-19.766c-4.609-6.305-13.458-7.681-19.766-3.075 c-14.667,10.718-32.055,16.384-50.286,16.384h-24.698l9.275-55.133h87.63c21.831,0,39.591,17.763,39.591,39.595 C365.746,242.36,365.568,245.288,365.216,248.153z"/> </g>
</svg>